# xmcd CD database file
#
# Track frame offsets:
#	150
#	18666
#	39800
#	59467
#	88604
#	120121
#	143952
#	175110
#	188002
#	203643
#	229869
#	245197
#
# Disc length: 3547 seconds
#
# Revision: 0
# Processed by: cddbd v1.5.1PL0 Copyright (c) Steve Scherf et al.
# Submitted via: CDex 1.51
#
DISCID=9a0dd90c
DTITLE=Aronas - Culture Tunnels
DYEAR=2005
DGENRE=Jazz
TTITLE0=Burn For Me
TTITLE1=Strange People
TTITLE2=God Save The Goat
TTITLE3=You Little Beauty
TTITLE4=Cabernet
TTITLE5=Triangle Treasure
TTITLE6=Aronas
TTITLE7=Happy Song
TTITLE8=The Intro
TTITLE9=Culture Tunnels
TTITLE10=Monkey Intense
TTITLE11=Ai Leik Et
EXTD=YEAR: 2005
EXTT0=
EXTT1=
EXTT2=
EXTT3=
EXTT4=
EXTT5=
EXTT6=
EXTT7=
EXTT8=
EXTT9=
EXTT10=
EXTT11=
PLAYORDER=
